<?xml version="1.0" encoding="utf-8"?>
<!-- Generator: Adobe Illustrator 17.0.0, SVG Export Plug-In . SVG Version: 6.00 Build 0)  -->
<!DOCTYPE svg PUBLIC "-//W3C//DTD SVG 1.1//EN" "http://www.w3.org/Graphics/SVG/1.1/DTD/svg11.dtd">
<svg version="1.1" id="Layer_1" xmlns="http://www.w3.org/2000/svg" xmlns:xlink="http://www.w3.org/1999/xlink" x="0px" y="0px"
	 width="150px" height="35px" viewBox="0 0 150 35" enable-background="new 0 0 150 35" xml:space="preserve">
<path fill="#2F6D8C" d="M49.226,6.999c-0.551-0.288-1.141-0.551-1.77-0.788c-0.629-0.235-1.325-0.354-2.086-0.354
	c-1.101,0-1.987,0.348-2.655,1.042c-0.667,0.695-1.002,1.711-1.002,3.049v2.635h6.057v3.068h-6.057v16.639h-3.541v-16.64h-3.147
	v-3.068h3.147v-2.399c0-1.152,0.169-2.19,0.51-3.107c0.341-0.919,0.813-1.704,1.417-2.361c0.603-0.655,1.338-1.154,2.202-1.495
	c0.866-0.339,1.81-0.51,2.833-0.51c1.101,0,2.052,0.125,2.852,0.373c0.799,0.249,1.566,0.559,2.3,0.925L49.226,6.999z"/>
<path fill="#2F6D8C" d="M54.811,25.526c0,1.417,0.295,2.465,0.885,3.147c0.59,0.682,1.41,1.023,2.458,1.023
	c0.498,0,0.983-0.059,1.455-0.178c0.472-0.117,1.756-0.491,2.124-0.649l1.905,2.055c-0.471,0.211-2.96,1.447-3.654,1.604
	c-0.696,0.158-1.463,0.237-2.302,0.237c-0.919,0-1.764-0.131-2.537-0.394c-0.774-0.261-1.45-0.669-2.026-1.22
	c-0.576-0.551-1.029-1.258-1.357-2.124c-0.328-0.865-0.491-1.914-0.491-3.147V3.183h3.541V25.526z"/>
<path fill="#2F6D8C" d="M59.833,22.182c0-1.52,0.235-2.944,0.708-4.269c0.472-1.324,1.135-2.471,1.987-3.441
	c0.853-0.97,1.876-1.73,3.068-2.281c1.194-0.551,2.498-0.826,3.915-0.826c1.18,0,2.247,0.203,3.206,0.608
	c0.956,0.408,1.789,0.912,2.497,1.516v-1.654h3.225v15.498c0,0.997,0.243,1.647,0.728,1.948c0.485,0.301,1.723,0.014,2.299,0.014
	l-0.707,2.995c-2.516,0-4.786-0.826-5.309-2.872c-0.315,0.419-0.675,0.832-1.082,1.239c-0.406,0.406-0.873,0.766-1.397,1.082
	c-0.525,0.315-1.114,0.563-1.77,0.747c-0.655,0.183-1.376,0.275-2.163,0.275c-1.285,0-2.486-0.249-3.6-0.747
	c-1.115-0.498-2.086-1.205-2.911-2.124c-0.826-0.917-1.481-2.026-1.965-3.324C60.075,25.27,59.833,23.808,59.833,22.182z
	 M69.824,29.617c0.997,0,1.942-0.237,2.833-0.709c0.89-0.471,1.637-1.087,2.243-1.849V16.085c-0.709-0.498-1.49-0.898-2.342-1.2
	c-0.851-0.301-1.75-0.453-2.694-0.453c-0.944,0-1.811,0.184-2.596,0.552c-0.788,0.367-1.463,0.885-2.026,1.552
	c-0.563,0.669-1.003,1.476-1.317,2.42c-0.315,0.944-0.472,1.98-0.472,3.107c0,1.101,0.157,2.119,0.472,3.049
	c0.314,0.931,0.76,1.73,1.336,2.399c0.578,0.669,1.253,1.187,2.026,1.554C68.06,29.433,68.907,29.617,69.824,29.617z"/>
<path fill="#2F6D8C" d="M84.181,15.26c0.735-1.103,1.658-2.026,2.774-2.774c1.114-0.747,2.405-1.12,3.875-1.12
	c1.624,0,2.95,0.386,3.973,1.16c1.023,0.773,1.756,1.828,2.202,3.166c0.813-1.205,1.777-2.228,2.891-3.068
	c1.114-0.839,2.498-1.258,4.15-1.258c1.101,0,2.065,0.183,2.891,0.551c0.827,0.367,1.516,0.885,2.066,1.552
	c0.551,0.669,0.964,1.47,1.239,2.401c0.275,0.93,0.413,1.959,0.413,3.087v13.334h-3.541V19.232c0-1.417-0.328-2.564-0.983-3.443
	c-0.656-0.877-1.561-1.317-2.715-1.317c-0.604,0-1.18,0.119-1.73,0.354c-0.552,0.237-1.076,0.559-1.575,0.964
	c-0.498,0.408-0.97,0.879-1.415,1.417c-0.447,0.538-0.853,1.095-1.22,1.673v13.413h-3.541V19.232c0-1.417-0.328-2.564-0.983-3.443
	c-0.656-0.877-1.561-1.317-2.715-1.317c-0.578,0-1.141,0.112-1.692,0.334c-0.551,0.222-1.082,0.532-1.593,0.925
	c-0.512,0.392-0.991,0.851-1.436,1.376c-0.447,0.525-0.853,1.076-1.22,1.652v13.531h-3.541V11.836h3.422L84.181,15.26L84.181,15.26z
	"/>
<path fill="#2F6D8C" d="M111.428,3.183h3.541v10.778c0.263-0.29,0.59-0.59,0.983-0.906c0.394-0.314,0.832-0.595,1.319-0.845
	c0.485-0.249,1.027-0.453,1.632-0.61c0.602-0.157,1.258-0.235,1.965-0.235c1.181,0,2.314,0.235,3.403,0.708
	c1.088,0.472,2.045,1.154,2.872,2.045c0.826,0.892,1.489,1.993,1.987,3.304c0.498,1.313,0.747,2.793,0.747,4.445
	c0,1.626-0.263,3.109-0.786,4.445c-0.525,1.338-1.22,2.486-2.086,3.443c-0.865,0.957-1.855,1.698-2.969,2.221
	c-1.115,0.525-2.249,0.788-3.403,0.788c-1.18,0-2.289-0.21-3.324-0.629c-1.036-0.419-1.895-0.931-2.577-1.535v1.692h-3.304
	L111.428,3.183L111.428,3.183z M126.257,21.985c0-1.18-0.163-2.236-0.491-3.166c-0.328-0.931-0.773-1.724-1.338-2.38
	c-0.563-0.655-1.218-1.154-1.965-1.495c-0.747-0.341-1.541-0.512-2.38-0.512c-1.129,0-2.145,0.283-3.049,0.847
	c-0.904,0.563-1.593,1.173-2.065,1.83v10.935c0.603,0.472,1.311,0.851,2.124,1.14c0.813,0.29,1.677,0.434,2.596,0.434
	c0.944,0,1.823-0.184,2.636-0.551c0.812-0.367,1.508-0.885,2.084-1.554c0.576-0.669,1.029-1.468,1.357-2.399
	C126.094,24.183,126.257,23.139,126.257,21.985z"/>
<path fill="#2F6D8C" d="M132.949,23.52c0.235,1.914,0.904,3.409,2.006,4.483c1.101,1.076,2.558,1.613,4.366,1.613
	c1.181,0,2.242-0.125,3.187-0.375c0.944-0.248,1.849-0.57,2.715-0.964l0.826,3.03c-0.944,0.445-2.007,0.8-3.187,1.061
	c-1.18,0.263-2.505,0.394-3.973,0.394c-1.47,0-2.793-0.243-3.973-0.728c-1.181-0.485-2.183-1.18-3.009-2.084
	c-0.826-0.906-1.463-2.02-1.908-3.343c-0.447-1.324-0.669-2.839-0.669-4.544c0-1.52,0.222-2.937,0.669-4.248
	c0.445-1.311,1.074-2.446,1.887-3.403s1.783-1.704,2.911-2.243c1.127-0.536,2.386-0.805,3.776-0.805c1.47,0,2.754,0.248,3.856,0.747
	c1.101,0.498,2.018,1.18,2.753,2.044c0.735,0.866,1.285,1.876,1.652,3.03s0.551,2.374,0.551,3.657c0,0.919-0.038,1.81-0.117,2.676
	L132.949,23.52L132.949,23.52z M138.495,14.432c-1.548,0-2.812,0.525-3.795,1.575c-0.984,1.049-1.581,2.596-1.791,4.642h11.21
	c0-1.993-0.498-3.527-1.493-4.603C141.629,14.97,140.252,14.432,138.495,14.432z"/>
<path fill="#2F6D8C" d="M132.046,8.1l7.435-4.917l1.652,3.304l-7.867,4.013L132.046,8.1z"/>
<g>
	<path fill="#2F6D8C" d="M11.392,22.378c0,5.403-0.538,9.642-4.211,9.642c-3.163,0-4.211-4.24-4.211-9.642s4.211-9.783,4.211-9.783
		S11.392,16.975,11.392,22.378z"/>
</g>
<g>
	<path fill="#598AA3" d="M10.642,24.096c0,4.44-0.442,7.924-3.461,7.924c-2.599,0-3.461-3.484-3.461-7.924s3.461-8.04,3.461-8.04
		S10.642,19.656,10.642,24.096z"/>
</g>
<g>
	<path fill="#85BBDF" d="M10.049,25.452c0,3.68-0.367,6.569-2.869,6.569c-2.154,0-2.869-2.888-2.869-6.569
		c0-3.68,2.869-6.664,2.869-6.664S10.049,21.772,10.049,25.452z"/>
</g>
<g>
	<path fill="#2F6D8C" d="M20.385,19.935c0,6.772-0.607,12.086-4.746,12.086c-3.565,0-4.746-5.314-4.746-12.086
		s4.746-12.262,4.746-12.262S20.385,13.163,20.385,19.935z"/>
</g>
<g>
	<path fill="#598AA3" d="M19.539,22.088c0,5.565-0.498,9.932-3.9,9.932c-2.929,0-3.9-4.367-3.9-9.932s3.9-10.077,3.9-10.077
		S19.539,16.523,19.539,22.088z"/>
</g>
<g>
	<path fill="#85BBDF" d="M18.872,23.788c0,4.613-0.413,8.233-3.233,8.233c-2.428,0-3.233-3.62-3.233-8.233s3.233-8.353,3.233-8.353
		S18.872,19.175,18.872,23.788z"/>
</g>
<g>
	<path fill="#2F6D8C" d="M30.561,17.865c0,7.932-0.65,14.156-5.088,14.156c-3.821,0-5.088-6.224-5.088-14.156
		s5.088-14.362,5.088-14.362S30.561,9.933,30.561,17.865z"/>
</g>
<g>
	<path fill="#598AA3" d="M29.654,20.388c0,6.518-0.534,11.633-4.181,11.633c-3.14,0-4.181-5.115-4.181-11.633
		s4.181-11.802,4.181-11.802S29.654,13.87,29.654,20.388z"/>
</g>
<g>
	<path fill="#85BBDF" d="M28.939,22.378c0,5.403-0.443,9.642-3.466,9.642c-2.603,0-3.466-4.24-3.466-9.642s3.466-9.783,3.466-9.783
		S28.939,16.975,28.939,22.378z"/>
</g>
</svg>
